<svg xmlns="http://www.w3.org/2000/svg" viewBox="0 0 44.42 55.75"><title>25,000+ Meals Served to Our Neighbors</title><g id="Layer_2" data-name="Layer 2"><g id="_92" data-name="92"><path d="M40.56,19.56a12.9,12.9,0,0,0-9.92-4.67,14.6,14.6,0,0,0-4.72.81l-.17.07-1,.49a5.59,5.59,0,0,1-5,0l-1.15-.55-.14-.06a14.7,14.7,0,0,0-4.73-.81,12.86,12.86,0,0,0-9.91,4.67A17.14,17.14,0,0,0,0,30.75a20.34,20.34,0,0,0,.16,2.56l.5,4a24.67,24.67,0,0,0,5.71,13,18,18,0,0,0,4.74,3.93,11,11,0,0,0,5.27,1.49,8.17,8.17,0,0,0,1.31-.1,6.54,6.54,0,0,0,2-.69,5.53,5.53,0,0,1,2.55-.63,5.45,5.45,0,0,1,2.53.63,6.6,6.6,0,0,0,2,.69,8,8,0,0,0,1.3.1,11,11,0,0,0,5.27-1.49,19.52,19.52,0,0,0,6.76-6.64,25.1,25.1,0,0,0,3.7-10.33l.49-4a20.34,20.34,0,0,0,.16-2.56A17.19,17.19,0,0,0,40.56,19.56ZM41.83,33l-.49,4a22.29,22.29,0,0,1-5.13,11.73,15.64,15.64,0,0,1-4.09,3.4A8.57,8.57,0,0,1,28,53.3a5.62,5.62,0,0,1-.92-.07,4.06,4.06,0,0,1-1.23-.44,7.94,7.94,0,0,0-3.67-.91,8.05,8.05,0,0,0-3.69.91,4,4,0,0,1-1.23.44,5.53,5.53,0,0,1-.92.07,8.57,8.57,0,0,1-4.08-1.18,17.26,17.26,0,0,1-5.88-5.81A22.56,22.56,0,0,1,3.09,37l-.5-4a19.58,19.58,0,0,1-.14-2.26,14.77,14.77,0,0,1,3.28-9.61,10.44,10.44,0,0,1,8-3.8,12.36,12.36,0,0,1,3.89.66l1.06.52a8.15,8.15,0,0,0,3.51.8,8,8,0,0,0,3.65-.88l.88-.44a12.24,12.24,0,0,1,3.87-.66,10.44,10.44,0,0,1,8,3.8A14.77,14.77,0,0,1,42,30.75,17.57,17.57,0,0,1,41.83,33Z" style="fill:#646464"/><path d="M21.94,14.63a11.58,11.58,0,0,0,1.44.08A12,12,0,0,0,32,11.17,12.09,12.09,0,0,0,35.49,2.6a13.9,13.9,0,0,0-.08-1.44A1.22,1.22,0,0,0,34.34.09,11.76,11.76,0,0,0,32.89,0a12.11,12.11,0,0,0-8.57,3.54h0a12.12,12.12,0,0,0-3.54,8.57,14.09,14.09,0,0,0,.08,1.45A1.23,1.23,0,0,0,21.94,14.63Zm4.11-9.35-.86-.87.86.87a9.63,9.63,0,0,1,6.84-2.83H33a.71.71,0,0,1,0,.14,9.63,9.63,0,0,1-9.66,9.66h-.14s0-.1,0-.15A9.6,9.6,0,0,1,26.05,5.28Z" style="fill:#646464"/><path d="M18.51,20.55h0A10.93,10.93,0,0,0,15,20a9.56,9.56,0,0,0-7.35,3.45,12.66,12.66,0,0,0-2.84,8.22A14.91,14.91,0,0,0,5,33.5a1.22,1.22,0,1,0,2.43-.3,12,12,0,0,1-.1-1.57A10.18,10.18,0,0,1,9.54,25,7.09,7.09,0,0,1,15,22.41a8.41,8.41,0,0,1,2.7.46,1.23,1.23,0,0,0,.79-2.32Z" style="fill:#646464"/><path d="M8.09,36.82a1.22,1.22,0,1,0-2.43.3h0a18.13,18.13,0,0,0,1.23,4.63,1.24,1.24,0,0,0,1.61.65,1.22,1.22,0,0,0,.65-1.6A15.55,15.55,0,0,1,8.09,36.82Z" style="fill:#646464"/></g></g></svg>