<svg class="numbers-icon" xmlns="http://www.w3.org/2000/svg" viewBox="0 0 48 48">
  <title>15,000+ Diapers for Families in Need</title>
  <path d="M43,9H5a1,1,0,0,0-1,1V22c0,10.1211,7.9443,19,17,19h6c9.0557,0,17-8.8789,17-19V10A1,1,0,0,0,43,9Zm-1,8H38V15h4Zm0-6v2H37a1,1,0,0,0-1,1v4a1,1,0,0,0,1,1h5v2.0459C33.9727,21.7813,26.6318,31.1924,26.0391,39H21.9609C21.3682,31.1924,14.0273,21.7813,6,21.0459V19h5a1,1,0,0,0,1-1V14a1,1,0,0,0-1-1H6V11ZM6,15h4v2H6Zm.0547,8.0826c6.8389.7956,13.25,9.0821,13.88,15.85C13.4174,38.2822,6.5883,31.7845,6.0547,23.0826Zm22.0107,15.85c.63-6.7683,7.041-15.0548,13.88-15.85C41.4117,31.7845,34.5826,38.2822,28.0654,38.933Z" fill="#646464"/>
</svg>