<svg class="numbers-icon" version="1.1" xmlns="http://www.w3.org/2000/svg" xmlns:xlink="http://www.w3.org/1999/xlink" x="0px" y="0px"
	 viewBox="0 0 128 128" style="enable-background:new 0 0 128 128;" xml:space="preserve">
	 <title>300+ Hours of Fitness and Socialization</title>
<g id="_x31_">
	<path style="fill:#646464;" d="M123.328,28.029H90.628c-2.579,0-4.672,2.093-4.672,4.672V54.19H42.044V32.701
		c0-2.579-2.093-4.672-4.672-4.672H4.672C2.093,28.029,0,30.122,0,32.701v62.599c0,2.579,2.093,4.672,4.672,4.672h32.701
		c2.579,0,4.672-2.093,4.672-4.672V73.81h43.912v21.489c0,2.579,2.093,4.672,4.672,4.672h32.701c2.579,0,4.672-2.093,4.672-4.672
		V32.701C128,30.122,125.907,28.029,123.328,28.029z M17.752,94.365H5.606v-60.73h12.146V94.365z M36.438,94.365H24.292v-60.73
		h12.146V94.365z M103.708,94.365H91.562v-60.73h12.146V94.365z M122.394,94.365h-12.146v-60.73h12.146V94.365z"/>
</g>
<g id="Layer_1">
</g>
</svg>