<svg xmlns="http://www.w3.org/2000/svg" viewBox="0 0 70.59 89.7"><title>500+ Hours of Early Intervention Therapies</title><g id="Layer_2" data-name="Layer 2"><g id="layer_1-2" data-name="layer 1"><path d="M30.61,89.7c-6.93,0-13.86-1.59-17-4.78a1.67,1.67,0,0,1-.44-1.6C13.2,83,15.33,73.5,11.46,65a21.31,21.31,0,0,0-3.12-4.54C4.62,55.88,0,50.23,0,34v-.15C.14,6.36,27.64,5.57,30.77,5.57h.53c.39,0,.89,0,1.47,0,6.28,0,27,2,30,27.65,0,.14.5,3,7,13.14a4.77,4.77,0,0,1,.71,3.51,4.61,4.61,0,0,1-2.39,3,52.89,52.89,0,0,1-5.35,2.62c.23,2.59.63,8.47,0,11.94-.81,4.27-7.18,5.16-12.38,5.16-.68,0-1.09,0-1.09,0H49a3.29,3.29,0,0,0-.88.1V83.73a1.67,1.67,0,0,1-.5,1.19C44.47,88.11,37.54,89.7,30.61,89.7Zm-14-6.62c5.67,4.36,22.68,4.33,28.17-.11V72.42c0-1.5,1.12-3.25,4.27-3.25h.43s.34,0,.88,0c5.64,0,8.82-1.21,9-2.41.75-4-.12-12.14-.13-12.22a1.7,1.7,0,0,1,1.07-1.76,49.21,49.21,0,0,0,6.07-2.88,1.57,1.57,0,0,0,.78-.81,1.42,1.42,0,0,0-.22-.93C60,37.26,59.46,34,59.44,33.46,56.76,10.7,38.35,8.92,32.77,8.92l-1.38,0h-.62C26.22,9,3.51,10.15,3.39,33.79v.15C3.39,49,7.58,54.16,11,58.28a24.54,24.54,0,0,1,3.59,5.29A33.92,33.92,0,0,1,16.59,83.08Z" style="fill:#646464"/><path d="M36.8,61.15A1.72,1.72,0,0,1,35,60.38l-1.2-2v6.76a3.32,3.32,0,0,1-2.31.7,3.31,3.31,0,0,1-2.32-.7V58l-1.48,2.39a1.7,1.7,0,0,1-1.84.76l-.07,0V71.94c0,2.29,2.45,4,5.7,4s5.71-1.73,5.71-4V61.05Zm-3,10.71a3.25,3.25,0,0,1-2.31.71,3.24,3.24,0,0,1-2.32-.71V68.94a8.87,8.87,0,0,0,4.63,0Z" style="fill:#646464"/><path d="M31.38,48.67a11,11,0,1,1,11-11A11,11,0,0,1,31.38,48.67Zm0-18.6A7.61,7.61,0,1,0,39,37.68,7.61,7.61,0,0,0,31.38,30.07Z" style="fill:#646464"/><path d="M31.38,48.67a10.82,10.82,0,0,1-4.66-1.05,1.69,1.69,0,0,1-1-1.53V10.28a1.64,1.64,0,0,1,.16-.72l4-8.58A1.69,1.69,0,0,1,33,1l4,8.55a1.68,1.68,0,0,1,.18.74h0V46a1.69,1.69,0,0,1-.95,1.52A10.84,10.84,0,0,1,31.38,48.67Zm-2.24-3.73a7.55,7.55,0,0,0,4.63,0V14a8.87,8.87,0,0,1-4.63,0Zm.15-34.6a3.8,3.8,0,0,0,2.17.56,3.84,3.84,0,0,0,2.16-.56L31.45,5.69Z" style="fill:#646464"/><path d="M54.06,41.4l-5.72-3.54v-.27l5.75-3.5a1.71,1.71,0,0,0,.77-1.83,25.1,25.1,0,0,0-1.19-3.74A24,24,0,0,0,51.88,25a1.68,1.68,0,0,0-1.83-.76L43.5,25.82l-.19-.19,1.59-6.54a1.7,1.7,0,0,0-.75-1.83,23.82,23.82,0,0,0-7-3v3.82l.17-.27a20.09,20.09,0,0,1,4,1.67l-1.53,6.27a1.71,1.71,0,0,0,.53,1.68,13,13,0,0,1,1.34,1.33,1.67,1.67,0,0,0,1.67.54l6.29-1.48a20.35,20.35,0,0,1,.93,1.95,21.29,21.29,0,0,1,.71,2l-5.52,3.36a1.72,1.72,0,0,0-.81,1.57,13.15,13.15,0,0,1,0,1.88,1.69,1.69,0,0,0,.8,1.56l5.5,3.4a20.75,20.75,0,0,1-1.66,4l-6.28-1.53a1.69,1.69,0,0,0-1.68.54A13.91,13.91,0,0,1,40.26,48a1.69,1.69,0,0,0-.54,1.67L41.2,55.9q-.95.51-2,.93a21.41,21.41,0,0,1-2,.71L33.84,52a1.66,1.66,0,0,0-1.44-.81h-.11a12.92,12.92,0,0,1-1.87,0,1.71,1.71,0,0,0-1.59.8l-3.39,5.5a20.19,20.19,0,0,1-4-1.67L23,49.56a1.69,1.69,0,0,0-.54-1.68,11.75,11.75,0,0,1-1.32-1.32A1.71,1.71,0,0,0,19.44,46L13.16,47.5a18.29,18.29,0,0,1-.93-2,20.67,20.67,0,0,1-.71-2L17,40.14a1.7,1.7,0,0,0,.81-1.56,13.13,13.13,0,0,1,0-1.88,1.7,1.7,0,0,0-.8-1.57l-5.5-3.39a21,21,0,0,1,1.66-4l6.29,1.52a1.72,1.72,0,0,0,1.67-.53,15.33,15.33,0,0,1,1.33-1.34,1.7,1.7,0,0,0,.55-1.67l-1.49-6.29c.64-.34,1.29-.65,2-.92a20.72,20.72,0,0,1,2-.72l.19.32V14.27a23.63,23.63,0,0,0-3.52,1.12,24.55,24.55,0,0,0-3.5,1.79A1.7,1.7,0,0,0,18,19l1.55,6.55-.19.19-6.54-1.58a1.7,1.7,0,0,0-1.84.75,23.8,23.8,0,0,0-3,7.21A1.67,1.67,0,0,0,8.71,34l5.71,3.53v.28l-5.74,3.5a1.7,1.7,0,0,0-.77,1.82,23.88,23.88,0,0,0,3,7.24,1.69,1.69,0,0,0,1.82.76l6.55-1.55.19.19-1.58,6.54a1.68,1.68,0,0,0,.75,1.83,24.15,24.15,0,0,0,7.2,3,1.7,1.7,0,0,0,1.84-.76l3.53-5.72h.28L35,60.38a1.72,1.72,0,0,0,1.83.77A23.78,23.78,0,0,0,40.53,60,24.48,24.48,0,0,0,44,58.18a1.69,1.69,0,0,0,.76-1.83L43.24,49.8l.2-.2L50,51.19a1.68,1.68,0,0,0,1.84-.75,24.29,24.29,0,0,0,3-7.21A1.69,1.69,0,0,0,54.06,41.4Z" style="fill:#646464"/></g></g></svg>